<?xml version="1.0" encoding="utf-8"?>
<!-- Generator: Adobe Illustrator 16.0.0, SVG Export Plug-In . SVG Version: 6.00 Build 0)  -->
<!DOCTYPE svg PUBLIC "-//W3C//DTD SVG 1.1//EN" "http://www.w3.org/Graphics/SVG/1.1/DTD/svg11.dtd">
<svg version="1.1" id="Layer_1" xmlns="http://www.w3.org/2000/svg" xmlns:xlink="http://www.w3.org/1999/xlink" x="0px" y="0px"
	 width="2560px" height="1440px" viewBox="0 0 2560 1440" enable-background="new 0 0 2560 1440" xml:space="preserve">
<path fill="#231F20" d="M1097.694,476.722l-163.05,456.783h103.87l30.643-92.921h163.034l29.833,92.921h107.493l-161.604-456.783
	H1097.694z M1151.78,590.089l53.888,167.863H1096.41L1151.78,590.089z"/>
<g>
	<defs>
		<rect id="SVGID_1_" x="443" y="378" width="1712.598" height="580"/>
	</defs>
	<clipPath id="SVGID_2_">
		<use xlink:href="#SVGID_1_"  overflow="visible"/>
	</clipPath>
	<path clip-path="url(#SVGID_2_)" fill="#231F20" d="M674.848,766.365h104.146c-4.925,27.544-17.097,50.189-36.194,67.346
		c-19.698,17.699-45.372,26.672-76.32,26.672c-31.548,0-60.105-11.432-84.891-33.972c-24.718-22.487-37.254-61.54-37.254-116.098
		c0-54.257,11.628-95.396,34.548-122.273c22.826-26.768,52.406-40.343,87.905-40.343c18.599,0,35.725,3.342,50.875,9.922
		c26.953,11.894,44.142,33.115,51.09,63.079l0.43,1.83h97.456l-0.308-2.64c-5.154-43.965-25.609-81.166-60.783-110.569
		c-35.139-29.36-82.232-44.251-139.993-44.251c-66.624,0-120.967,22.534-161.526,66.975C463.536,576.416,443,636.14,443,709.553
		c0,72.625,20.34,130.716,60.429,172.629c38.519,41.788,88.633,62.977,148.944,62.977c36.667,0,68.031-7.822,93.23-23.234
		c13.766-8.296,29.341-22.37,46.346-41.854l9.008,53.437h66.925V686.192H674.848V766.365z"/>
	<path clip-path="url(#SVGID_2_)" fill="#231F20" d="M2153.382,551.8l-121.706-168.892c-0.105-0.15-0.249-0.245-0.354-0.39
		c-0.354-0.453-0.748-0.866-1.175-1.262c-0.243-0.233-0.479-0.45-0.733-0.66c-0.157-0.121-0.27-0.266-0.434-0.377
		c-0.302-0.216-0.643-0.367-0.957-0.551c-0.269-0.16-0.524-0.331-0.807-0.466c-0.643-0.308-1.305-0.544-1.974-0.734
		c-0.151-0.039-0.282-0.104-0.434-0.145c-0.853-0.2-1.705-0.295-2.577-0.302c-0.053-0.003-0.099-0.022-0.145-0.022h-306.061
		c-3.855,0-7.476,1.883-9.686,5.04l-118.033,168.779c-0.714,0.997-1.277,2.108-1.658,3.302c-0.388,1.217-0.564,2.47-0.551,3.712
		v387.375c0,6.507,5.292,11.792,11.817,11.792h545.87c6.518,0,11.811-5.285,11.811-11.792V558.683
		C2155.598,556.217,2154.817,553.807,2153.382,551.8 M1722.193,401.582h276.844L1894.33,546.897h-273.769L1722.193,401.582z
		 M1888.572,934.424h-278.851V570.477h278.851V934.424z M2131.976,934.424h-219.782V562.482l109.895-152.499l109.888,152.499
		V934.424z"/>
</g>
</svg>